<svg xmlns="http://www.w3.org/2000/svg" version="1.1" xmlns:xlink="http://www.w3.org/1999/xlink" xmlns:svgjs="http://svgjs.com/svgjs" width="1440" height="560" preserveAspectRatio="none" viewBox="0 0 1440 560"><g mask="url(&quot;#SvgjsMask1000&quot;)" fill="none"><rect width="1440" height="560" x="0" y="0" fill="#0e2a47"></rect><path d="M-107.12 410.91L-107.12 410.91" stroke="#132e65" stroke-width="1.5"></path><path d="M-107.12 410.91L-59.42 541.69" stroke="#132e65" stroke-width="1.5"></path><path d="M-107.12 410.91L52.37 358.33" stroke="#132e65" stroke-width="1.5"></path><path d="M-107.12 410.91L106.64 539.51" stroke="#132e65" stroke-width="1.5"></path><path d="M-59.42 541.69L-59.42 541.69" stroke="#132e65" stroke-width="1.5"></path><path d="M-59.42 541.69L106.64 539.51" stroke="#132e65" stroke-width="1.5"></path><path d="M-59.42 541.69L-40.6 709.07" stroke="#132e65" stroke-width="1.5"></path><path d="M-59.42 541.69L39.28 698.81" stroke="#132e65" stroke-width="1.5"></path><path d="M-59.42 541.69L52.37 358.33" stroke="#132e65" stroke-width="1.5"></path><path d="M-40.6 709.07L-40.6 709.07" stroke="#132e65" stroke-width="1.5"></path><path d="M-40.6 709.07L39.28 698.81" stroke="#132e65" stroke-width="1.5"></path><path d="M-40.6 709.07L106.64 539.51" stroke="#132e65" stroke-width="1.5"></path><path d="M-40.6 709.07L200.61 649.71" stroke="#132e65" stroke-width="1.5"></path><path d="M-40.6 709.07L-107.12 410.91" stroke="#132e65" stroke-width="1.5"></path><path d="M52.37 358.33L52.37 358.33" stroke="#132e65" stroke-width="1.5"></path><path d="M52.37 358.33L106.64 539.51" stroke="#132e65" stroke-width="1.5"></path><path d="M52.37 358.33L246.28 361.86" stroke="#132e65" stroke-width="1.5"></path><path d="M106.64 539.51L106.64 539.51" stroke="#132e65" stroke-width="1.5"></path><path d="M106.64 539.51L200.61 649.71" stroke="#132e65" stroke-width="1.5"></path><path d="M106.64 539.51L255.99 528.59" stroke="#132e65" stroke-width="1.5"></path><path d="M106.64 539.51L39.28 698.81" stroke="#132e65" stroke-width="1.5"></path><path d="M39.28 698.81L39.28 698.81" stroke="#132e65" stroke-width="1.5"></path><path d="M39.28 698.81L200.61 649.71" stroke="#132e65" stroke-width="1.5"></path><path d="M246.28 361.86L246.28 361.86" stroke="#132e65" stroke-width="1.5"></path><path d="M246.28 361.86L347.77 362.86" stroke="#132e65" stroke-width="1.5"></path><path d="M246.28 361.86L255.99 528.59" stroke="#132e65" stroke-width="1.5"></path><path d="M255.99 528.59L255.99 528.59" stroke="#132e65" stroke-width="1.5"></path><path d="M255.99 528.59L351.63 552.65" stroke="#132e65" stroke-width="1.5"></path><path d="M255.99 528.59L200.61 649.71" stroke="#132e65" stroke-width="1.5"></path><path d="M255.99 528.59L358.53 660.16" stroke="#132e65" stroke-width="1.5"></path><path d="M200.61 649.71L200.61 649.71" stroke="#132e65" stroke-width="1.5"></path><path d="M347.77 362.86L347.77 362.86" stroke="#132e65" stroke-width="1.5"></path><path d="M347.77 362.86L255.99 528.59" stroke="#132e65" stroke-width="1.5"></path><path d="M351.63 552.65L351.63 552.65" stroke="#132e65" stroke-width="1.5"></path><path d="M351.63 552.65L358.53 660.16" stroke="#132e65" stroke-width="1.5"></path><path d="M351.63 552.65L501.02 514.14" stroke="#132e65" stroke-width="1.5"></path><path d="M351.63 552.65L200.61 649.71" stroke="#132e65" stroke-width="1.5"></path><path d="M351.63 552.65L347.77 362.86" stroke="#132e65" stroke-width="1.5"></path><path d="M351.63 552.65L246.28 361.86" stroke="#132e65" stroke-width="1.5"></path><path d="M358.53 660.16L358.53 660.16" stroke="#132e65" stroke-width="1.5"></path><path d="M358.53 660.16L200.61 649.71" stroke="#132e65" stroke-width="1.5"></path><path d="M560.05 400.41L560.05 400.41" stroke="#132e65" stroke-width="1.5"></path><path d="M560.05 400.41L501.02 514.14" stroke="#132e65" stroke-width="1.5"></path><path d="M560.05 400.41L704.95 339.19" stroke="#132e65" stroke-width="1.5"></path><path d="M560.05 400.41L697.8 518.09" stroke="#132e65" stroke-width="1.5"></path><path d="M560.05 400.41L347.77 362.86" stroke="#132e65" stroke-width="1.5"></path><path d="M560.05 400.41L800.91 373.27" stroke="#132e65" stroke-width="1.5"></path><path d="M560.05 400.41L707.71 204.51" stroke="#132e65" stroke-width="1.5"></path><path d="M501.02 514.14L501.02 514.14" stroke="#132e65" stroke-width="1.5"></path><path d="M555.68 695.77L555.68 695.77" stroke="#132e65" stroke-width="1.5"></path><path d="M555.68 695.77L643.15 687.85" stroke="#132e65" stroke-width="1.5"></path><path d="M555.68 695.77L501.02 514.14" stroke="#132e65" stroke-width="1.5"></path><path d="M555.68 695.77L358.53 660.16" stroke="#132e65" stroke-width="1.5"></path><path d="M707.71 204.51L707.71 204.51" stroke="#132e65" stroke-width="1.5"></path><path d="M707.71 204.51L824.07 202.82" stroke="#132e65" stroke-width="1.5"></path><path d="M707.71 204.51L704.95 339.19" stroke="#132e65" stroke-width="1.5"></path><path d="M704.95 339.19L704.95 339.19" stroke="#132e65" stroke-width="1.5"></path><path d="M704.95 339.19L800.91 373.27" stroke="#132e65" stroke-width="1.5"></path><path d="M704.95 339.19L697.8 518.09" stroke="#132e65" stroke-width="1.5"></path><path d="M697.8 518.09L697.8 518.09" stroke="#132e65" stroke-width="1.5"></path><path d="M697.8 518.09L822.08 504.58" stroke="#132e65" stroke-width="1.5"></path><path d="M697.8 518.09L800.91 373.27" stroke="#132e65" stroke-width="1.5"></path><path d="M697.8 518.09L643.15 687.85" stroke="#132e65" stroke-width="1.5"></path><path d="M697.8 518.09L791.09 684.93" stroke="#132e65" stroke-width="1.5"></path><path d="M643.15 687.85L643.15 687.85" stroke="#132e65" stroke-width="1.5"></path><path d="M643.15 687.85L791.09 684.93" stroke="#132e65" stroke-width="1.5"></path><path d="M643.15 687.85L501.02 514.14" stroke="#132e65" stroke-width="1.5"></path><path d="M643.15 687.85L822.08 504.58" stroke="#132e65" stroke-width="1.5"></path><path d="M643.15 687.85L358.53 660.16" stroke="#132e65" stroke-width="1.5"></path><path d="M859.34 74.92L859.34 74.92" stroke="#132e65" stroke-width="1.5"></path><path d="M859.34 74.92L974.05 87.08" stroke="#132e65" stroke-width="1.5"></path><path d="M859.34 74.92L824.07 202.82" stroke="#132e65" stroke-width="1.5"></path><path d="M859.34 74.92L707.71 204.51" stroke="#132e65" stroke-width="1.5"></path><path d="M859.34 74.92L1010.24 -58.65" stroke="#132e65" stroke-width="1.5"></path><path d="M859.34 74.92L1128.67 60" stroke="#132e65" stroke-width="1.5"></path><path d="M824.07 202.82L824.07 202.82" stroke="#132e65" stroke-width="1.5"></path><path d="M824.07 202.82L800.91 373.27" stroke="#132e65" stroke-width="1.5"></path><path d="M800.91 373.27L800.91 373.27" stroke="#132e65" stroke-width="1.5"></path><path d="M800.91 373.27L822.08 504.58" stroke="#132e65" stroke-width="1.5"></path><path d="M822.08 504.58L822.08 504.58" stroke="#132e65" stroke-width="1.5"></path><path d="M822.08 504.58L791.09 684.93" stroke="#132e65" stroke-width="1.5"></path><path d="M822.08 504.58L1001.11 561.27" stroke="#132e65" stroke-width="1.5"></path><path d="M791.09 684.93L791.09 684.93" stroke="#132e65" stroke-width="1.5"></path><path d="M1010.24 -58.65L1010.24 -58.65" stroke="#132e65" stroke-width="1.5"></path><path d="M1010.24 -58.65L1146.31 -54.61" stroke="#132e65" stroke-width="1.5"></path><path d="M974.05 87.08L974.05 87.08" stroke="#132e65" stroke-width="1.5"></path><path d="M974.05 87.08L1010.24 -58.65" stroke="#132e65" stroke-width="1.5"></path><path d="M974.05 87.08L1128.67 60" stroke="#132e65" stroke-width="1.5"></path><path d="M974.05 87.08L824.07 202.82" stroke="#132e65" stroke-width="1.5"></path><path d="M993.49 345.68L993.49 345.68" stroke="#132e65" stroke-width="1.5"></path><path d="M993.49 345.68L1125.24 367.33" stroke="#132e65" stroke-width="1.5"></path><path d="M993.49 345.68L800.91 373.27" stroke="#132e65" stroke-width="1.5"></path><path d="M993.49 345.68L1144.33 222.32" stroke="#132e65" stroke-width="1.5"></path><path d="M993.49 345.68L1001.11 561.27" stroke="#132e65" stroke-width="1.5"></path><path d="M1001.11 561.27L1001.11 561.27" stroke="#132e65" stroke-width="1.5"></path><path d="M1001.11 561.27L1122.27 653.75" stroke="#132e65" stroke-width="1.5"></path><path d="M1001.11 561.27L1156.41 559.93" stroke="#132e65" stroke-width="1.5"></path><path d="M1001.11 561.27L1125.24 367.33" stroke="#132e65" stroke-width="1.5"></path><path d="M1001.11 561.27L791.09 684.93" stroke="#132e65" stroke-width="1.5"></path><path d="M1146.31 -54.61L1146.31 -54.61" stroke="#132e65" stroke-width="1.5"></path><path d="M1146.31 -54.61L1128.67 60" stroke="#132e65" stroke-width="1.5"></path><path d="M1128.67 60L1128.67 60" stroke="#132e65" stroke-width="1.5"></path><path d="M1144.33 222.32L1144.33 222.32" stroke="#132e65" stroke-width="1.5"></path><path d="M1144.33 222.32L1125.24 367.33" stroke="#132e65" stroke-width="1.5"></path><path d="M1144.33 222.32L1302.3 207.24" stroke="#132e65" stroke-width="1.5"></path><path d="M1144.33 222.32L1128.67 60" stroke="#132e65" stroke-width="1.5"></path><path d="M1125.24 367.33L1125.24 367.33" stroke="#132e65" stroke-width="1.5"></path><path d="M1125.24 367.33L1156.41 559.93" stroke="#132e65" stroke-width="1.5"></path><path d="M1125.24 367.33L1302.3 207.24" stroke="#132e65" stroke-width="1.5"></path><path d="M1125.24 367.33L1290.06 550.57" stroke="#132e65" stroke-width="1.5"></path><path d="M1156.41 559.93L1156.41 559.93" stroke="#132e65" stroke-width="1.5"></path><path d="M1156.41 559.93L1122.27 653.75" stroke="#132e65" stroke-width="1.5"></path><path d="M1156.41 559.93L1290.06 550.57" stroke="#132e65" stroke-width="1.5"></path><path d="M1156.41 559.93L1261.44 643.74" stroke="#132e65" stroke-width="1.5"></path><path d="M1122.27 653.75L1122.27 653.75" stroke="#132e65" stroke-width="1.5"></path><path d="M1122.27 653.75L1261.44 643.74" stroke="#132e65" stroke-width="1.5"></path><path d="M1122.27 653.75L1290.06 550.57" stroke="#132e65" stroke-width="1.5"></path><path d="M1267.19 -101.22L1267.19 -101.22" stroke="#132e65" stroke-width="1.5"></path><path d="M1267.19 -101.22L1146.31 -54.61" stroke="#132e65" stroke-width="1.5"></path><path d="M1267.19 -101.22L1400.4 -53.42" stroke="#132e65" stroke-width="1.5"></path><path d="M1267.19 -101.22L1128.67 60" stroke="#132e65" stroke-width="1.5"></path><path d="M1267.19 -101.22L1442.52 60.13" stroke="#132e65" stroke-width="1.5"></path><path d="M1267.19 -101.22L1010.24 -58.65" stroke="#132e65" stroke-width="1.5"></path><path d="M1267.19 -101.22L1302.3 207.24" stroke="#132e65" stroke-width="1.5"></path><path d="M1302.3 207.24L1302.3 207.24" stroke="#132e65" stroke-width="1.5"></path><path d="M1302.3 207.24L1442.57 229.12" stroke="#132e65" stroke-width="1.5"></path><path d="M1302.3 207.24L1408.81 353" stroke="#132e65" stroke-width="1.5"></path><path d="M1302.3 207.24L1442.52 60.13" stroke="#132e65" stroke-width="1.5"></path><path d="M1290.06 550.57L1290.06 550.57" stroke="#132e65" stroke-width="1.5"></path><path d="M1290.06 550.57L1261.44 643.74" stroke="#132e65" stroke-width="1.5"></path><path d="M1290.06 550.57L1417.48 544.91" stroke="#132e65" stroke-width="1.5"></path><path d="M1290.06 550.57L1408.81 353" stroke="#132e65" stroke-width="1.5"></path><path d="M1261.44 643.74L1261.44 643.74" stroke="#132e65" stroke-width="1.5"></path><path d="M1400.4 -53.42L1400.4 -53.42" stroke="#132e65" stroke-width="1.5"></path><path d="M1400.4 -53.42L1442.52 60.13" stroke="#132e65" stroke-width="1.5"></path><path d="M1442.52 60.13L1442.52 60.13" stroke="#132e65" stroke-width="1.5"></path><path d="M1442.52 60.13L1574.78 87.83" stroke="#132e65" stroke-width="1.5"></path><path d="M1442.52 60.13L1442.57 229.12" stroke="#132e65" stroke-width="1.5"></path><path d="M1442.52 60.13L1584.93 219.91" stroke="#132e65" stroke-width="1.5"></path><path d="M1442.52 60.13L1612.42 -100.79" stroke="#132e65" stroke-width="1.5"></path><path d="M1442.57 229.12L1442.57 229.12" stroke="#132e65" stroke-width="1.5"></path><path d="M1442.57 229.12L1408.81 353" stroke="#132e65" stroke-width="1.5"></path><path d="M1442.57 229.12L1584.93 219.91" stroke="#132e65" stroke-width="1.5"></path><path d="M1408.81 353L1408.81 353" stroke="#132e65" stroke-width="1.5"></path><path d="M1408.81 353L1417.48 544.91" stroke="#132e65" stroke-width="1.5"></path><path d="M1408.81 353L1608.3 368.45" stroke="#132e65" stroke-width="1.5"></path><path d="M1408.81 353L1584.93 219.91" stroke="#132e65" stroke-width="1.5"></path><path d="M1417.48 544.91L1417.48 544.91" stroke="#132e65" stroke-width="1.5"></path><path d="M1417.48 544.91L1261.44 643.74" stroke="#132e65" stroke-width="1.5"></path><path d="M1417.48 544.91L1601.48 507.88" stroke="#132e65" stroke-width="1.5"></path><path d="M1417.48 544.91L1597.78 662.09" stroke="#132e65" stroke-width="1.5"></path><path d="M1417.48 544.91L1608.3 368.45" stroke="#132e65" stroke-width="1.5"></path><path d="M1612.42 -100.79L1612.42 -100.79" stroke="#132e65" stroke-width="1.5"></path><path d="M1612.42 -100.79L1574.78 87.83" stroke="#132e65" stroke-width="1.5"></path><path d="M1612.42 -100.79L1400.4 -53.42" stroke="#132e65" stroke-width="1.5"></path><path d="M1612.42 -100.79L1584.93 219.91" stroke="#132e65" stroke-width="1.5"></path><path d="M1574.78 87.83L1574.78 87.83" stroke="#132e65" stroke-width="1.5"></path><path d="M1574.78 87.83L1584.93 219.91" stroke="#132e65" stroke-width="1.5"></path><path d="M1584.93 219.91L1584.93 219.91" stroke="#132e65" stroke-width="1.5"></path><path d="M1584.93 219.91L1608.3 368.45" stroke="#132e65" stroke-width="1.5"></path><path d="M1608.3 368.45L1608.3 368.45" stroke="#132e65" stroke-width="1.5"></path><path d="M1608.3 368.45L1601.48 507.88" stroke="#132e65" stroke-width="1.5"></path><path d="M1608.3 368.45L1442.57 229.12" stroke="#132e65" stroke-width="1.5"></path><path d="M1601.48 507.88L1601.48 507.88" stroke="#132e65" stroke-width="1.5"></path><path d="M1601.48 507.88L1597.78 662.09" stroke="#132e65" stroke-width="1.5"></path><path d="M1601.48 507.88L1408.81 353" stroke="#132e65" stroke-width="1.5"></path><path d="M1601.48 507.88L1584.93 219.91" stroke="#132e65" stroke-width="1.5"></path><path d="M1597.78 662.09L1597.78 662.09" stroke="#132e65" stroke-width="1.5"></path><path d="M1597.78 662.09L1608.3 368.45" stroke="#132e65" stroke-width="1.5"></path><path d="M1597.78 662.09L1290.06 550.57" stroke="#132e65" stroke-width="1.5"></path><circle r="5" cx="-107.12" cy="410.91" fill="#132e65"></circle><circle r="5" cx="-59.42" cy="541.69" fill="#132e65"></circle><circle r="5" cx="-40.6" cy="709.07" fill="#132e65"></circle><circle r="5" cx="52.37" cy="358.33" fill="#132e65"></circle><circle r="5" cx="106.64" cy="539.51" fill="#132e65"></circle><circle r="5" cx="39.28" cy="698.81" fill="#132e65"></circle><circle r="5" cx="246.28" cy="361.86" fill="#132e65"></circle><circle r="5" cx="255.99" cy="528.59" fill="#132e65"></circle><circle r="5" cx="200.61" cy="649.71" fill="#132e65"></circle><circle r="5" cx="347.77" cy="362.86" fill="#132e65"></circle><circle r="5" cx="351.63" cy="552.65" fill="#132e65"></circle><circle r="5" cx="358.53" cy="660.16" fill="#132e65"></circle><circle r="5" cx="560.05" cy="400.41" fill="#132e65"></circle><circle r="5" cx="501.02" cy="514.14" fill="#132e65"></circle><circle r="5" cx="555.68" cy="695.77" fill="#132e65"></circle><circle r="5" cx="707.71" cy="204.51" fill="#132e65"></circle><circle r="5" cx="704.95" cy="339.19" fill="#132e65"></circle><circle r="5" cx="697.8" cy="518.09" fill="#132e65"></circle><circle r="5" cx="643.15" cy="687.85" fill="#132e65"></circle><circle r="5" cx="859.34" cy="74.92" fill="#132e65"></circle><circle r="5" cx="824.07" cy="202.82" fill="#132e65"></circle><circle r="5" cx="800.91" cy="373.27" fill="#132e65"></circle><circle r="5" cx="822.08" cy="504.58" fill="#132e65"></circle><circle r="5" cx="791.09" cy="684.93" fill="#132e65"></circle><circle r="5" cx="1010.24" cy="-58.65" fill="#132e65"></circle><circle r="5" cx="974.05" cy="87.08" fill="#132e65"></circle><circle r="5" cx="993.49" cy="345.68" fill="#132e65"></circle><circle r="5" cx="1001.11" cy="561.27" fill="#132e65"></circle><circle r="5" cx="1146.31" cy="-54.61" fill="#132e65"></circle><circle r="5" cx="1128.67" cy="60" fill="#132e65"></circle><circle r="5" cx="1144.33" cy="222.32" fill="#132e65"></circle><circle r="5" cx="1125.24" cy="367.33" fill="#132e65"></circle><circle r="5" cx="1156.41" cy="559.93" fill="#132e65"></circle><circle r="5" cx="1122.27" cy="653.75" fill="#132e65"></circle><circle r="5" cx="1267.19" cy="-101.22" fill="#132e65"></circle><circle r="5" cx="1302.3" cy="207.24" fill="#132e65"></circle><circle r="5" cx="1290.06" cy="550.57" fill="#132e65"></circle><circle r="5" cx="1261.44" cy="643.74" fill="#132e65"></circle><circle r="5" cx="1400.4" cy="-53.42" fill="#132e65"></circle><circle r="5" cx="1442.52" cy="60.13" fill="#132e65"></circle><circle r="5" cx="1442.57" cy="229.12" fill="#132e65"></circle><circle r="5" cx="1408.81" cy="353" fill="#132e65"></circle><circle r="5" cx="1417.48" cy="544.91" fill="#132e65"></circle><circle r="5" cx="1612.42" cy="-100.79" fill="#132e65"></circle><circle r="5" cx="1574.78" cy="87.83" fill="#132e65"></circle><circle r="5" cx="1584.93" cy="219.91" fill="#132e65"></circle><circle r="5" cx="1608.3" cy="368.45" fill="#132e65"></circle><circle r="5" cx="1601.48" cy="507.88" fill="#132e65"></circle><circle r="5" cx="1597.78" cy="662.09" fill="#132e65"></circle><path d="M61.81 494.33L61.81 494.33" stroke="hsl(228.5, 77.2%, 51.5%)" stroke-width="1.5"></path><path d="M61.81 494.33L73.11 638.1" stroke="hsl(228.5, 77.2%, 51.5%)" stroke-width="1.5"></path><path d="M61.81 494.33L-95.44 513.61" stroke="hsl(228.5, 77.2%, 51.5%)" stroke-width="1.5"></path><path d="M61.81 494.33L222.42 533.58" stroke="hsl(228.5, 77.2%, 51.5%)" stroke-width="1.5"></path><path d="M61.81 494.33L-41.71 654.86" stroke="hsl(228.5, 77.2%, 51.5%)" stroke-width="1.5"></path><path d="M61.81 494.33L222.53 706.09" stroke="hsl(228.5, 77.2%, 51.5%)" stroke-width="1.5"></path><path d="M61.81 494.33L410.18 547.93" stroke="hsl(228.5, 77.2%, 51.5%)" stroke-width="1.5"></path><path d="M222.42 533.58L222.42 533.58" stroke="hsl(228.5, 77.2%, 51.5%)" stroke-width="1.5"></path><path d="M222.42 533.58L222.53 706.09" stroke="hsl(228.5, 77.2%, 51.5%)" stroke-width="1.5"></path><path d="M222.42 533.58L73.11 638.1" stroke="hsl(228.5, 77.2%, 51.5%)" stroke-width="1.5"></path><path d="M660.64 409.55L660.64 409.55" stroke="hsl(228.5, 77.2%, 51.5%)" stroke-width="1.5"></path><path d="M660.64 409.55L672.58 499.79" stroke="hsl(228.5, 77.2%, 51.5%)" stroke-width="1.5"></path><path d="M660.64 409.55L814.92 504.59" stroke="hsl(228.5, 77.2%, 51.5%)" stroke-width="1.5"></path><path d="M970.94 535.12L970.94 535.12" stroke="hsl(228.5, 77.2%, 51.5%)" stroke-width="1.5"></path><path d="M970.94 535.12L981.46 391.17" stroke="hsl(228.5, 77.2%, 51.5%)" stroke-width="1.5"></path><path d="M970.94 535.12L1117.08 523.76" stroke="hsl(228.5, 77.2%, 51.5%)" stroke-width="1.5"></path><path d="M970.94 535.12L814.92 504.59" stroke="hsl(228.5, 77.2%, 51.5%)" stroke-width="1.5"></path><path d="M1117.08 523.76L1117.08 523.76" stroke="hsl(228.5, 77.2%, 51.5%)" stroke-width="1.5"></path><path d="M1117.08 523.76L1290.85 548.36" stroke="hsl(228.5, 77.2%, 51.5%)" stroke-width="1.5"></path><path d="M1290.85 548.36L1290.85 548.36" stroke="hsl(228.5, 77.2%, 51.5%)" stroke-width="1.5"></path><path d="M1290.85 548.36L1388.37 559.76" stroke="hsl(228.5, 77.2%, 51.5%)" stroke-width="1.5"></path><path d="M1290.85 548.36L1308.48 689.04" stroke="hsl(228.5, 77.2%, 51.5%)" stroke-width="1.5"></path><path d="M1290.85 548.36L1284.99 397.26" stroke="hsl(228.5, 77.2%, 51.5%)" stroke-width="1.5"></path><path d="M1602.93 79.85L1602.93 79.85" stroke="hsl(228.5, 77.2%, 51.5%)" stroke-width="1.5"></path><path d="M1602.93 79.85L1553.58 193.57" stroke="hsl(228.5, 77.2%, 51.5%)" stroke-width="1.5"></path><path d="M1588.76 488.1L1588.76 488.1" stroke="hsl(228.5, 77.2%, 51.5%)" stroke-width="1.5"></path><path d="M1588.76 488.1L1608.86 342.67" stroke="hsl(228.5, 77.2%, 51.5%)" stroke-width="1.5"></path><path d="M1588.76 488.1L1606.55 667.74" stroke="hsl(228.5, 77.2%, 51.5%)" stroke-width="1.5"></path><path d="M1606.55 667.74L1606.55 667.74" stroke="hsl(228.5, 77.2%, 51.5%)" stroke-width="1.5"></path><path d="M1606.55 667.74L1446.43 671.66" stroke="hsl(228.5, 77.2%, 51.5%)" stroke-width="1.5"></path><path d="M-95.44 513.61L-95.44 513.61" stroke="hsl(228.5, 77.2%, 51.5%)" stroke-width="1.5"></path><path d="M-95.44 513.61L-41.71 654.86" stroke="hsl(228.5, 77.2%, 51.5%)" stroke-width="1.5"></path><path d="M-95.44 513.61L73.11 638.1" stroke="hsl(228.5, 77.2%, 51.5%)" stroke-width="1.5"></path><path d="M-95.44 513.61L222.42 533.58" stroke="hsl(228.5, 77.2%, 51.5%)" stroke-width="1.5"></path><path d="M-95.44 513.61L222.53 706.09" stroke="hsl(228.5, 77.2%, 51.5%)" stroke-width="1.5"></path><path d="M-41.71 654.86L-41.71 654.86" stroke="hsl(228.5, 77.2%, 51.5%)" stroke-width="1.5"></path><path d="M-41.71 654.86L73.11 638.1" stroke="hsl(228.5, 77.2%, 51.5%)" stroke-width="1.5"></path><path d="M73.11 638.1L73.11 638.1" stroke="hsl(228.5, 77.2%, 51.5%)" stroke-width="1.5"></path><path d="M73.11 638.1L222.53 706.09" stroke="hsl(228.5, 77.2%, 51.5%)" stroke-width="1.5"></path><path d="M222.53 706.09L222.53 706.09" stroke="hsl(228.5, 77.2%, 51.5%)" stroke-width="1.5"></path><path d="M222.53 706.09L401.56 707.52" stroke="hsl(228.5, 77.2%, 51.5%)" stroke-width="1.5"></path><path d="M222.53 706.09L410.18 547.93" stroke="hsl(228.5, 77.2%, 51.5%)" stroke-width="1.5"></path><path d="M410.18 547.93L410.18 547.93" stroke="hsl(228.5, 77.2%, 51.5%)" stroke-width="1.5"></path><path d="M410.18 547.93L545.77 558" stroke="hsl(228.5, 77.2%, 51.5%)" stroke-width="1.5"></path><path d="M410.18 547.93L401.56 707.52" stroke="hsl(228.5, 77.2%, 51.5%)" stroke-width="1.5"></path><path d="M410.18 547.93L506.31 685.4" stroke="hsl(228.5, 77.2%, 51.5%)" stroke-width="1.5"></path><path d="M410.18 547.93L222.42 533.58" stroke="hsl(228.5, 77.2%, 51.5%)" stroke-width="1.5"></path><path d="M410.18 547.93L672.58 499.79" stroke="hsl(228.5, 77.2%, 51.5%)" stroke-width="1.5"></path><path d="M401.56 707.52L401.56 707.52" stroke="hsl(228.5, 77.2%, 51.5%)" stroke-width="1.5"></path><path d="M401.56 707.52L506.31 685.4" stroke="hsl(228.5, 77.2%, 51.5%)" stroke-width="1.5"></path><path d="M545.77 558L545.77 558" stroke="hsl(228.5, 77.2%, 51.5%)" stroke-width="1.5"></path><path d="M545.77 558L506.31 685.4" stroke="hsl(228.5, 77.2%, 51.5%)" stroke-width="1.5"></path><path d="M506.31 685.4L506.31 685.4" stroke="hsl(228.5, 77.2%, 51.5%)" stroke-width="1.5"></path><path d="M506.31 685.4L707.12 647.24" stroke="hsl(228.5, 77.2%, 51.5%)" stroke-width="1.5"></path><path d="M506.31 685.4L672.58 499.79" stroke="hsl(228.5, 77.2%, 51.5%)" stroke-width="1.5"></path><path d="M672.58 499.79L672.58 499.79" stroke="hsl(228.5, 77.2%, 51.5%)" stroke-width="1.5"></path><path d="M672.58 499.79L545.77 558" stroke="hsl(228.5, 77.2%, 51.5%)" stroke-width="1.5"></path><path d="M672.58 499.79L814.92 504.59" stroke="hsl(228.5, 77.2%, 51.5%)" stroke-width="1.5"></path><path d="M672.58 499.79L707.12 647.24" stroke="hsl(228.5, 77.2%, 51.5%)" stroke-width="1.5"></path><path d="M672.58 499.79L855.52 396.09" stroke="hsl(228.5, 77.2%, 51.5%)" stroke-width="1.5"></path><path d="M707.12 647.24L707.12 647.24" stroke="hsl(228.5, 77.2%, 51.5%)" stroke-width="1.5"></path><path d="M707.12 647.24L814.92 504.59" stroke="hsl(228.5, 77.2%, 51.5%)" stroke-width="1.5"></path><path d="M707.12 647.24L545.77 558" stroke="hsl(228.5, 77.2%, 51.5%)" stroke-width="1.5"></path><path d="M855.52 396.09L855.52 396.09" stroke="hsl(228.5, 77.2%, 51.5%)" stroke-width="1.5"></path><path d="M855.52 396.09L814.92 504.59" stroke="hsl(228.5, 77.2%, 51.5%)" stroke-width="1.5"></path><path d="M855.52 396.09L981.46 391.17" stroke="hsl(228.5, 77.2%, 51.5%)" stroke-width="1.5"></path><path d="M855.52 396.09L970.94 535.12" stroke="hsl(228.5, 77.2%, 51.5%)" stroke-width="1.5"></path><path d="M855.52 396.09L660.64 409.55" stroke="hsl(228.5, 77.2%, 51.5%)" stroke-width="1.5"></path><path d="M814.92 504.59L814.92 504.59" stroke="hsl(228.5, 77.2%, 51.5%)" stroke-width="1.5"></path><path d="M981.46 391.17L981.46 391.17" stroke="hsl(228.5, 77.2%, 51.5%)" stroke-width="1.5"></path><path d="M981.46 391.17L1103.09 341.61" stroke="hsl(228.5, 77.2%, 51.5%)" stroke-width="1.5"></path><path d="M1158.6 196.26L1158.6 196.26" stroke="hsl(228.5, 77.2%, 51.5%)" stroke-width="1.5"></path><path d="M1158.6 196.26L1103.09 341.61" stroke="hsl(228.5, 77.2%, 51.5%)" stroke-width="1.5"></path><path d="M1158.6 196.26L1284.04 42.7" stroke="hsl(228.5, 77.2%, 51.5%)" stroke-width="1.5"></path><path d="M1158.6 196.26L1284.99 397.26" stroke="hsl(228.5, 77.2%, 51.5%)" stroke-width="1.5"></path><path d="M1103.09 341.61L1103.09 341.61" stroke="hsl(228.5, 77.2%, 51.5%)" stroke-width="1.5"></path><path d="M1308.99 -100.38L1308.99 -100.38" stroke="hsl(228.5, 77.2%, 51.5%)" stroke-width="1.5"></path><path d="M1308.99 -100.38L1453.03 -105.18" stroke="hsl(228.5, 77.2%, 51.5%)" stroke-width="1.5"></path><path d="M1308.99 -100.38L1284.04 42.7" stroke="hsl(228.5, 77.2%, 51.5%)" stroke-width="1.5"></path><path d="M1308.99 -100.38L1446.82 98.12" stroke="hsl(228.5, 77.2%, 51.5%)" stroke-width="1.5"></path><path d="M1308.99 -100.38L1581.58 -60.26" stroke="hsl(228.5, 77.2%, 51.5%)" stroke-width="1.5"></path><path d="M1284.04 42.7L1284.04 42.7" stroke="hsl(228.5, 77.2%, 51.5%)" stroke-width="1.5"></path><path d="M1284.04 42.7L1446.82 98.12" stroke="hsl(228.5, 77.2%, 51.5%)" stroke-width="1.5"></path><path d="M1284.99 397.26L1284.99 397.26" stroke="hsl(228.5, 77.2%, 51.5%)" stroke-width="1.5"></path><path d="M1284.99 397.26L1410.26 412.29" stroke="hsl(228.5, 77.2%, 51.5%)" stroke-width="1.5"></path><path d="M1284.99 397.26L1103.09 341.61" stroke="hsl(228.5, 77.2%, 51.5%)" stroke-width="1.5"></path><path d="M1308.48 689.04L1308.48 689.04" stroke="hsl(228.5, 77.2%, 51.5%)" stroke-width="1.5"></path><path d="M1308.48 689.04L1446.43 671.66" stroke="hsl(228.5, 77.2%, 51.5%)" stroke-width="1.5"></path><path d="M1453.03 -105.18L1453.03 -105.18" stroke="hsl(228.5, 77.2%, 51.5%)" stroke-width="1.5"></path><path d="M1453.03 -105.18L1581.58 -60.26" stroke="hsl(228.5, 77.2%, 51.5%)" stroke-width="1.5"></path><path d="M1446.82 98.12L1446.82 98.12" stroke="hsl(228.5, 77.2%, 51.5%)" stroke-width="1.5"></path><path d="M1446.82 98.12L1404.07 232.43" stroke="hsl(228.5, 77.2%, 51.5%)" stroke-width="1.5"></path><path d="M1446.82 98.12L1553.58 193.57" stroke="hsl(228.5, 77.2%, 51.5%)" stroke-width="1.5"></path><path d="M1446.82 98.12L1602.93 79.85" stroke="hsl(228.5, 77.2%, 51.5%)" stroke-width="1.5"></path><path d="M1446.82 98.12L1453.03 -105.18" stroke="hsl(228.5, 77.2%, 51.5%)" stroke-width="1.5"></path><path d="M1404.07 232.43L1404.07 232.43" stroke="hsl(228.5, 77.2%, 51.5%)" stroke-width="1.5"></path><path d="M1404.07 232.43L1553.58 193.57" stroke="hsl(228.5, 77.2%, 51.5%)" stroke-width="1.5"></path><path d="M1404.07 232.43L1410.26 412.29" stroke="hsl(228.5, 77.2%, 51.5%)" stroke-width="1.5"></path><path d="M1404.07 232.43L1284.99 397.26" stroke="hsl(228.5, 77.2%, 51.5%)" stroke-width="1.5"></path><path d="M1404.07 232.43L1284.04 42.7" stroke="hsl(228.5, 77.2%, 51.5%)" stroke-width="1.5"></path><path d="M1410.26 412.29L1410.26 412.29" stroke="hsl(228.5, 77.2%, 51.5%)" stroke-width="1.5"></path><path d="M1410.26 412.29L1388.37 559.76" stroke="hsl(228.5, 77.2%, 51.5%)" stroke-width="1.5"></path><path d="M1388.37 559.76L1388.37 559.76" stroke="hsl(228.5, 77.2%, 51.5%)" stroke-width="1.5"></path><path d="M1388.37 559.76L1446.43 671.66" stroke="hsl(228.5, 77.2%, 51.5%)" stroke-width="1.5"></path><path d="M1388.37 559.76L1308.48 689.04" stroke="hsl(228.5, 77.2%, 51.5%)" stroke-width="1.5"></path><path d="M1388.37 559.76L1284.99 397.26" stroke="hsl(228.5, 77.2%, 51.5%)" stroke-width="1.5"></path><path d="M1446.43 671.66L1446.43 671.66" stroke="hsl(228.5, 77.2%, 51.5%)" stroke-width="1.5"></path><path d="M1446.43 671.66L1290.85 548.36" stroke="hsl(228.5, 77.2%, 51.5%)" stroke-width="1.5"></path><path d="M1446.43 671.66L1588.76 488.1" stroke="hsl(228.5, 77.2%, 51.5%)" stroke-width="1.5"></path><path d="M1581.58 -60.26L1581.58 -60.26" stroke="hsl(228.5, 77.2%, 51.5%)" stroke-width="1.5"></path><path d="M1581.58 -60.26L1602.93 79.85" stroke="hsl(228.5, 77.2%, 51.5%)" stroke-width="1.5"></path><path d="M1581.58 -60.26L1446.82 98.12" stroke="hsl(228.5, 77.2%, 51.5%)" stroke-width="1.5"></path><path d="M1581.58 -60.26L1553.58 193.57" stroke="hsl(228.5, 77.2%, 51.5%)" stroke-width="1.5"></path><path d="M1553.58 193.57L1553.58 193.57" stroke="hsl(228.5, 77.2%, 51.5%)" stroke-width="1.5"></path><path d="M1608.86 342.67L1608.86 342.67" stroke="hsl(228.5, 77.2%, 51.5%)" stroke-width="1.5"></path><path d="M1608.86 342.67L1553.58 193.57" stroke="hsl(228.5, 77.2%, 51.5%)" stroke-width="1.5"></path><path d="M1608.86 342.67L1410.26 412.29" stroke="hsl(228.5, 77.2%, 51.5%)" stroke-width="1.5"></path><path d="M1608.86 342.67L1404.07 232.43" stroke="hsl(228.5, 77.2%, 51.5%)" stroke-width="1.5"></path><path d="M1608.86 342.67L1602.93 79.85" stroke="hsl(228.5, 77.2%, 51.5%)" stroke-width="1.5"></path><path d="M1608.86 342.67L1446.82 98.12" stroke="hsl(228.5, 77.2%, 51.5%)" stroke-width="1.5"></path><circle r="25" cx="61.81" cy="494.33" fill="url(#SvgjsRadialGradient1001)"></circle><circle r="25" cx="222.42" cy="533.58" fill="url(#SvgjsRadialGradient1001)"></circle><circle r="25" cx="660.64" cy="409.55" fill="url(#SvgjsRadialGradient1001)"></circle><circle r="25" cx="970.94" cy="535.12" fill="url(#SvgjsRadialGradient1001)"></circle><circle r="25" cx="1117.08" cy="523.76" fill="url(#SvgjsRadialGradient1001)"></circle><circle r="25" cx="1290.85" cy="548.36" fill="url(#SvgjsRadialGradient1001)"></circle><circle r="25" cx="1602.93" cy="79.85" fill="url(#SvgjsRadialGradient1001)"></circle><circle r="25" cx="1588.76" cy="488.1" fill="url(#SvgjsRadialGradient1001)"></circle><circle r="25" cx="1606.55" cy="667.74" fill="url(#SvgjsRadialGradient1001)"></circle><circle r="5" cx="-95.44" cy="513.61" fill="#8b9ad9"></circle><circle r="5" cx="-41.71" cy="654.86" fill="#8b9ad9"></circle><circle r="5" cx="73.11" cy="638.1" fill="#8b9ad9"></circle><circle r="5" cx="222.53" cy="706.09" fill="#8b9ad9"></circle><circle r="5" cx="410.18" cy="547.93" fill="#8b9ad9"></circle><circle r="5" cx="401.56" cy="707.52" fill="#8b9ad9"></circle><circle r="5" cx="545.77" cy="558" fill="#8b9ad9"></circle><circle r="5" cx="506.31" cy="685.4" fill="#8b9ad9"></circle><circle r="5" cx="672.58" cy="499.79" fill="#8b9ad9"></circle><circle r="5" cx="707.12" cy="647.24" fill="#8b9ad9"></circle><circle r="5" cx="855.52" cy="396.09" fill="#8b9ad9"></circle><circle r="5" cx="814.92" cy="504.59" fill="#8b9ad9"></circle><circle r="5" cx="981.46" cy="391.17" fill="#8b9ad9"></circle><circle r="5" cx="1158.6" cy="196.26" fill="#8b9ad9"></circle><circle r="5" cx="1103.09" cy="341.61" fill="#8b9ad9"></circle><circle r="5" cx="1308.99" cy="-100.38" fill="#8b9ad9"></circle><circle r="5" cx="1284.04" cy="42.7" fill="#8b9ad9"></circle><circle r="5" cx="1284.99" cy="397.26" fill="#8b9ad9"></circle><circle r="5" cx="1308.48" cy="689.04" fill="#8b9ad9"></circle><circle r="5" cx="1453.03" cy="-105.18" fill="#8b9ad9"></circle><circle r="5" cx="1446.82" cy="98.12" fill="#8b9ad9"></circle><circle r="5" cx="1404.07" cy="232.43" fill="#8b9ad9"></circle><circle r="5" cx="1410.26" cy="412.29" fill="#8b9ad9"></circle><circle r="5" cx="1388.37" cy="559.76" fill="#8b9ad9"></circle><circle r="5" cx="1446.43" cy="671.66" fill="#8b9ad9"></circle><circle r="5" cx="1581.58" cy="-60.26" fill="#8b9ad9"></circle><circle r="5" cx="1553.58" cy="193.57" fill="#8b9ad9"></circle><circle r="5" cx="1608.86" cy="342.67" fill="#8b9ad9"></circle></g><defs><mask id="SvgjsMask1000"><rect width="1440" height="560" fill="#ffffff"></rect></mask><radialGradient id="SvgjsRadialGradient1001"><stop stop-color="#ffffff" offset="0.1"></stop><stop stop-color="#1735b3" offset="0.2"></stop><stop stop-color="rgba(23, 53, 179, 0)" offset="1"></stop></radialGradient></defs></svg>