<svg id="visual" viewBox="0 0 900 600" width="900" height="600" xmlns="http://www.w3.org/2000/svg" xmlns:xlink="http://www.w3.org/1999/xlink" version="1.1"><g transform="translate(436.33817214177213 312.89519808979276)"><path d="M169.1 -228.6C226.2 -191.3 284.3 -151.3 314.3 -93.9C344.3 -36.5 346.2 38.3 325.9 107.4C305.5 176.5 263 240 205 268C146.9 296 73.5 288.6 0.4 288.1C-72.7 287.6 -145.4 293.9 -199.6 264.6C-253.8 235.3 -289.5 170.5 -304.1 103.9C-318.6 37.4 -311.9 -30.9 -293.7 -98C-275.4 -165.1 -245.6 -231 -194.7 -270.3C-143.8 -309.6 -71.9 -322.3 -7.9 -311.4C56 -300.5 112.1 -265.9 169.1 -228.6" fill="#18181a"></path></g></svg>