<?xml version="1.0" standalone="no"?><svg xmlns="http://www.w3.org/2000/svg" viewBox="0 0 1440 320"><path fill="rgb(24, 24, 26)" fill-opacity="1" d="M0,288L34.3,282.7C68.6,277,137,267,206,256C274.3,245,343,235,411,224C480,213,549,203,617,202.7C685.7,203,754,213,823,229.3C891.4,245,960,267,1029,240C1097.1,213,1166,139,1234,128C1302.9,117,1371,171,1406,197.3L1440,224L1440,320L1405.7,320C1371.4,320,1303,320,1234,320C1165.7,320,1097,320,1029,320C960,320,891,320,823,320C754.3,320,686,320,617,320C548.6,320,480,320,411,320C342.9,320,274,320,206,320C137.1,320,69,320,34,320L0,320Z"></path></svg>